HIERARCHY
ROOT joint_Root
{
	OFFSET 0.0 0.0 0.0
	CHANNELS 6 Xposition Yposition Zposition Zrotation Xrotation Yrotation 
	JOINT Hips
	{
		OFFSET 4.5925 91.4895 -427.239
		CHANNELS 6 Xposition Yposition Zposition Zrotation Xrotation Yrotation 
		JOINT Spine
		{
			OFFSET 15.7357 0.0 0.0
			CHANNELS 6 Xposition Yposition Zposition Zrotation Xrotation Yrotation 
			JOINT Chest
			{
				OFFSET 8.98455 -0.406207 0.0
				CHANNELS 6 Xposition Yposition Zposition Zrotation Xrotation Yrotation 
				JOINT Neck
				{
					OFFSET 16.3773 0.0 0.0
					CHANNELS 6 Xposition Yposition Zposition Zrotation Xrotation Yrotation 
					JOINT Head
					{
						OFFSET 6.45672 0.0 0.0
						CHANNELS 6 Xposition Yposition Zposition Zrotation Xrotation Yrotation 
						End Site
						{
							OFFSET 0.0 0.0 0.0
						}
					}
				}
				JOINT Shoulder_L
				{
					OFFSET 12.9942 -0.242716 4.98039
					CHANNELS 6 Xposition Yposition Zposition Zrotation Xrotation Yrotation 
					JOINT UpperArm_L
					{
						OFFSET 5.34809 0.0 0.0
						CHANNELS 6 Xposition Yposition Zposition Zrotation Xrotation Yrotation 
						JOINT LowerArm_L
						{
							OFFSET 24.3286 1.87007e-05 0.0
							CHANNELS 6 Xposition Yposition Zposition Zrotation Xrotation Yrotation 
							JOINT Hand_L
							{
								OFFSET 22.2916 0.0 0.0
								CHANNELS 6 Xposition Yposition Zposition Zrotation Xrotation Yrotation 
								End Site
								{
									OFFSET 0.0 0.0 0.0
								}
							}
						}
					}
				}
				JOINT Shoulder_R
				{
					OFFSET 12.9945 -0.242716 -4.98039
					CHANNELS 6 Xposition Yposition Zposition Zrotation Xrotation Yrotation 
					JOINT UpperArm_R
					{
						OFFSET -5.34813 0.0 0.0
						CHANNELS 6 Xposition Yposition Zposition Zrotation Xrotation Yrotation 
						JOINT LowerArm_R
						{
							OFFSET -24.3289 0.000322201 0.0
							CHANNELS 6 Xposition Yposition Zposition Zrotation Xrotation Yrotation 
							JOINT Hand_R
							{
								OFFSET -22.2915 -0.000108084 0.0
								CHANNELS 6 Xposition Yposition Zposition Zrotation Xrotation Yrotation 
								End Site
								{
									OFFSET 0.0 0.0 0.0
								}
							}
						}
					}
				}
			}
		}
		JOINT UpperLeg_L
		{
			OFFSET -2.19248 -6.46944 0.0
			CHANNELS 6 Xposition Yposition Zposition Zrotation Xrotation Yrotation 
			JOINT LowerLeg_L
			{
				OFFSET 39.0811 0.0 -1.23785e-05
				CHANNELS 6 Xposition Yposition Zposition Zrotation Xrotation Yrotation 
				JOINT Foot_L
				{
					OFFSET 40.9854 0.0 -1.26872e-05
					CHANNELS 6 Xposition Yposition Zposition Zrotation Xrotation Yrotation 
					JOINT Toes_L
					{
						OFFSET 11.7543 0.0 0.0
						CHANNELS 6 Xposition Yposition Zposition Zrotation Xrotation Yrotation 
						End Site
						{
							OFFSET 0.0 0.0 0.0
						}
					}
				}
			}
		}
		JOINT UpperLeg_R
		{
			OFFSET -2.19251 6.46944 0.0
			CHANNELS 6 Xposition Yposition Zposition Zrotation Xrotation Yrotation 
			JOINT LowerLeg_R
			{
				OFFSET -39.0811 -0.00228153 -0.0401928
				CHANNELS 6 Xposition Yposition Zposition Zrotation Xrotation Yrotation 
				JOINT Foot_R
				{
					OFFSET -40.9854 0.0 0.0
					CHANNELS 6 Xposition Yposition Zposition Zrotation Xrotation Yrotation 
					JOINT Toes_R
					{
						OFFSET -11.7543 0.0 0.0
						CHANNELS 6 Xposition Yposition Zposition Zrotation Xrotation Yrotation 
						End Site
						{
							OFFSET 0.0 0.0 0.0
						}
					}
				}
			}
		}
	}
}
MOTION
Frames:	6
Frame Time:	0.0333333
0.000000 0.000000 0.000000 0.000000 0.000000 -0.000000 -5.968760 90.194800 1.184040 85.253500 -6.501760 11.229500 15.735700 0.000005 -0.000001 72.386000 82.226000 -67.853200 8.984550 -0.406207 -0.000000 7.274700 -4.706960 9.359830 16.377300 -0.000001 -0.000001 27.677100 -9.698750 3.189450 6.456720 -0.000001 -0.000000 14.957800 -10.327300 18.125600 12.994200 -0.242716 4.980390 -87.953000 -4.761590 -66.704400 5.348090 -0.000007 -0.000001 -69.484600 -44.650900 -96.128800 24.328600 0.000019 0.000005 16.926700 7.770300 -66.046400 22.291600 -0.000001 0.000005 17.440600 5.400260 -2.946000 12.994500 -0.242716 -4.980390 87.518100 10.193300 -76.237900 -5.348130 -0.000001 -0.000004 -59.382800 30.225100 -8.890760 -24.328900 0.000322 -0.000009 2.331840 7.102410 -18.236600 -22.291500 -0.000108 -0.000004 14.456800 5.414830 -3.425570 -2.192480 -6.469440 -0.000000 -165.660000 -12.633600 2.819670 39.081100 -0.000007 -0.000012 -0.285499 0.436170 33.207700 40.985400 -0.000006 -0.000013 -3.029200 7.023540 -73.024300 11.754300 -0.000000 0.000003 -0.000110 -0.001113 -16.620200 -2.192510 6.469440 -0.000001 179.080000 23.869700 -173.655000 -39.081100 -0.002282 -0.040193 -0.221138 0.412644 28.542700 -40.985400 0.000008 0.000006 7.790150 17.133400 -73.616300 -11.754300 -0.000006 -0.000006 -0.000474 -0.007624 -16.883500
0.000000 0.000000 0.000000 0.000000 0.000000 -0.000000 -5.993180 90.195200 1.151590 85.243600 -6.548770 11.237400 15.735700 0.000005 -0.000001 72.441300 82.214200 -67.902000 8.984550 -0.406207 -0.000000 7.301790 -4.698680 9.373480 16.377300 -0.000001 -0.000001 27.697700 -9.713050 3.151400 6.456720 -0.000001 -0.000000 14.984400 -10.340600 18.178800 12.994200 -0.242716 4.980390 -87.957300 -4.753320 -66.712100 5.348090 -0.000007 -0.000001 -69.504200 -44.626000 -96.146700 24.328600 0.000019 0.000005 17.017500 7.824720 -66.019600 22.291600 -0.000001 0.000005 17.415600 5.398960 -2.903880 12.994500 -0.242716 -4.980390 87.507300 10.203100 -76.192800 -5.348130 -0.000001 -0.000004 -59.389500 30.210000 -8.847110 -24.328900 0.000322 -0.000009 2.323620 7.157820 -18.045500 -22.291500 -0.000108 -0.000004 14.424000 5.414160 -3.403390 -2.192480 -6.469440 -0.000000 -165.626000 -12.663400 2.821820 39.081100 -0.000007 -0.000012 -0.286134 0.437057 33.212600 40.985400 -0.000006 -0.000013 -3.054150 7.000090 -73.007800 11.754300 -0.000000 0.000003 -0.000108 -0.001095 -16.619500 -2.192510 6.469440 -0.000001 179.115000 23.876100 -173.672000 -39.081100 -0.002282 -0.040193 -0.219638 0.409763 28.549900 -40.985400 0.000008 0.000006 7.828380 17.159600 -73.609000 -11.754300 -0.000006 -0.000006 -0.000394 -0.006383 -16.833100
0.000000 0.000000 0.000000 0.000000 0.000000 -0.000000 -6.006120 90.198200 1.118130 85.257000 -6.613250 11.237300 15.735700 0.000005 -0.000001 72.421300 82.208100 -67.884400 8.984550 -0.406207 -0.000000 7.312040 -4.707040 9.369740 16.377300 -0.000001 -0.000001 27.720500 -9.698580 3.182110 6.456720 -0.000001 -0.000000 15.001900 -10.342600 18.114300 12.994200 -0.242716 4.980390 -87.956600 -4.758180 -66.725900 5.348090 -0.000007 -0.000001 -69.551900 -44.605600 -96.143200 24.328600 0.000019 0.000005 16.991600 7.814570 -66.012700 22.291600 -0.000001 0.000005 17.456000 5.398730 -2.896420 12.994500 -0.242716 -4.980390 87.511900 10.186000 -76.195400 -5.348130 -0.000001 -0.000004 -59.446500 30.158800 -8.769140 -24.328900 0.000322 -0.000009 2.344020 7.253140 -17.971200 -22.291500 -0.000108 -0.000004 14.447100 5.411710 -3.321740 -2.192480 -6.469440 -0.000000 -165.624000 -12.710300 2.819650 39.081100 -0.000007 -0.000012 -0.282817 0.432160 33.202300 40.985400 -0.000006 -0.000013 -3.068960 6.985660 -72.980500 11.754300 -0.000000 0.000003 -0.000105 -0.001076 -16.618800 -2.192510 6.469440 -0.000001 179.139000 23.793100 -173.718000 -39.081100 -0.002282 -0.040193 -0.221271 0.412438 28.569000 -40.985400 0.000008 0.000006 7.847050 17.170500 -73.595000 -11.754300 -0.000006 -0.000006 -0.000467 -0.007516 -16.879100
0.000000 0.000000 0.000000 0.000000 0.000000 -0.000000 -6.031250 90.198300 1.089740 85.242100 -6.695040 11.251800 15.735700 0.000005 -0.000001 72.371000 82.192400 -67.833100 8.984550 -0.406207 -0.000000 7.339030 -4.728340 9.374320 16.377300 -0.000001 -0.000001 27.753500 -9.726890 3.158710 6.456720 -0.000001 -0.000000 15.066700 -10.319600 18.138700 12.994200 -0.242716 4.980390 -87.957300 -4.757160 -66.728500 5.348090 -0.000007 -0.000001 -69.581600 -44.581400 -96.119400 24.328600 0.000019 0.000005 16.967800 7.796190 -66.030900 22.291600 -0.000001 0.000005 17.464500 5.397890 -2.868910 12.994500 -0.242716 -4.980390 87.505700 10.202600 -76.183500 -5.348130 -0.000001 -0.000004 -59.446300 30.121100 -8.724250 -24.328900 0.000322 -0.000009 2.320030 7.177840 -17.972700 -22.291500 -0.000108 -0.000004 14.481100 5.413420 -3.378790 -2.192480 -6.469440 -0.000000 -165.564000 -12.764900 2.842170 39.081100 -0.000007 -0.000012 -0.287535 0.439374 33.202100 40.985400 -0.000006 -0.000013 -3.087970 6.998990 -72.964400 11.754300 -0.000000 0.000003 -0.000104 -0.001062 -16.618300 -2.192510 6.469440 -0.000001 179.194000 23.782200 -173.729000 -39.081100 -0.002282 -0.040193 -0.214837 0.400543 28.573700 -40.985400 0.000008 0.000006 7.879240 17.162100 -73.582200 -11.754300 -0.000006 -0.000006 -0.000267 -0.004382 -16.751800
0.000000 0.000000 0.000000 0.000000 0.000000 -0.000000 -6.044400 90.192700 1.063020 85.211200 -6.764480 11.239500 15.735700 0.000005 -0.000001 72.336000 82.181300 -67.785900 8.984550 -0.406207 -0.000000 7.358620 -4.743300 9.400440 16.377300 -0.000001 -0.000001 27.733000 -9.772770 3.192670 6.456720 -0.000001 -0.000000 15.182900 -10.383900 18.053400 12.994200 -0.242716 4.980390 -87.966500 -4.741160 -66.752500 5.348090 -0.000007 -0.000001 -69.592700 -44.556600 -96.074900 24.328600 0.000019 0.000005 16.900900 7.756370 -66.049900 22.291600 -0.000001 0.000005 17.422000 5.398450 -2.887160 12.994500 -0.242716 -4.980390 87.508700 10.179100 -76.169400 -5.348130 -0.000001 -0.000004 -59.459100 30.075700 -8.714210 -24.328900 0.000322 -0.000009 2.344840 7.219520 -18.055000 -22.291500 -0.000108 -0.000004 14.441600 5.412230 -3.339090 -2.192480 -6.469440 -0.000000 -165.528000 -12.781100 2.802760 39.081100 -0.000007 -0.000012 -0.286656 0.437158 33.254500 40.985400 -0.000006 -0.000013 -3.102860 6.967550 -72.975100 11.754300 -0.000000 0.000003 -0.000112 -0.001135 -16.621000 -2.192510 6.469440 -0.000001 179.259000 23.705700 -173.787000 -39.081100 -0.002282 -0.040193 -0.217767 0.405302 28.610600 -40.985400 0.000008 0.000006 7.899060 17.175600 -73.579600 -11.754300 -0.000006 -0.000006 -0.000513 -0.008221 -16.907700
0.000000 0.000000 0.000000 0.000000 0.000000 -0.000000 -6.050730 90.194800 1.043590 85.227300 -6.857210 11.286100 15.735700 0.000005 -0.000001 72.280600 82.160000 -67.740000 8.984550 -0.406207 -0.000000 7.395460 -4.768930 9.384670 16.377300 -0.000001 -0.000001 27.796700 -9.796220 3.185480 6.456720 -0.000001 -0.000000 15.200600 -10.384800 18.018300 12.994200 -0.242716 4.980390 -87.958100 -4.759570 -66.747800 5.348090 -0.000007 -0.000001 -69.531900 -44.515500 -95.936200 24.328600 0.000019 0.000005 16.966900 7.786930 -66.054700 22.291600 -0.000001 0.000005 17.320900 5.397750 -2.864450 12.994500 -0.242716 -4.980390 87.512300 10.183600 -76.194100 -5.348130 -0.000001 -0.000004 -59.422800 30.128700 -8.723690 -24.328900 0.000322 -0.000009 2.344950 7.197740 -18.106500 -22.291500 -0.000108 -0.000004 14.514200 5.411030 -3.299350 -2.192480 -6.469440 -0.000000 -165.503000 -12.880400 2.881100 39.081100 -0.000007 -0.000012 -0.283469 0.432640 33.233700 40.985400 -0.000006 -0.000013 -3.110920 6.964530 -72.959200 11.754300 -0.000000 0.000003 -0.000107 -0.001089 -16.619300 -2.192510 6.469440 -0.000001 179.241000 23.652800 -173.750000 -39.081100 -0.002282 -0.040193 -0.216520 0.402925 28.616000 -40.985400 0.000008 0.000006 7.916780 17.201600 -73.578000 -11.754300 -0.000006 -0.000006 -0.000341 -0.005552 -16.799300
